<svg xmlns="http://www.w3.org/2000/svg" xmlns:xlink="http://www.w3.org/1999/xlink" width="423" height="223" viewBox="0 0 423 223">
  <defs>
    <clipPath id="clip-Web_1920_1">
      <rect width="423" height="223"/>
    </clipPath>
  </defs>
  <g id="Web_1920_1" data-name="Web 1920 – 1" clip-path="url(#clip-Web_1920_1)">
    <rect width="423" height="223" fill="#fff"/>
    <line id="Line_1" data-name="Line 1" x2="360.766" transform="translate(46.038 184.461)" fill="none" stroke="#364548" stroke-width="1"/>
    <g id="docker" transform="translate(3.807 155.851)">
      <path id="Path_1" data-name="Path 1" d="M68.367,14.662h7.3v7.494H79.36a15.951,15.951,0,0,0,5.073-.854A12.965,12.965,0,0,0,86.9,20.184a9.212,9.212,0,0,1-1.711-4.739c-.211-2.288.249-5.265,1.791-7.055l.768-.891.915.738a11.68,11.68,0,0,1,4.58,7.412,11.119,11.119,0,0,1,8.472.791l1,.581-.528,1.034c-2.067,4.05-6.388,5.3-10.613,5.083C85.254,38.947,71.491,46.431,54.8,46.431c-8.621,0-16.531-3.236-21.035-10.916L33.7,35.39,33.04,34.05a21.341,21.341,0,0,1-1.685-10.785l.1-1.108H37.7V14.662H45V7.331h14.6V0h8.762V14.662" transform="translate(-20.94)" fill="#364548" fill-rule="evenodd"/>
      <path id="Path_2" data-name="Path 2" d="M94.535,37.147c.489-3.932-2.355-7.02-4.118-8.486-2.032,2.431-2.348,8.8.84,11.485-1.779,1.635-5.528,3.117-9.367,3.117H35.161A20.991,20.991,0,0,0,37.1,54.5L37.63,55.5a18.716,18.716,0,0,0,1.1,1.71q2.882.192,5.313.135h0A25.242,25.242,0,0,0,51.8,56.18a.558.558,0,0,1,.7.364.587.587,0,0,1-.33.733c-.262.094-.535.182-.817.266h0a23.631,23.631,0,0,1-5.359.9c.128,0-.133.02-.133.02-.073,0-.165.016-.238.02-.844.049-1.756.059-2.687.059-1.019,0-2.023-.02-3.145-.079l-.029.02c3.893,4.528,9.981,7.244,17.613,7.244,16.15,0,29.849-7.408,35.915-24.039,4.3.457,8.44-.679,10.321-4.479a9.848,9.848,0,0,0-9.07-.065" transform="translate(-23.494 -20.557)" fill="#22a0c8" fill-rule="evenodd"/>
      <path id="Path_3" data-name="Path 3" d="M102.6,37.147c.506-3.932-2.436-7.02-4.261-8.486-2.1,2.431-2.429,8.8.869,11.485-1.841,1.635-5.72,3.117-9.693,3.117H44.025c-.2,6.35,2.159,11.171,6.329,14.085h0a26.954,26.954,0,0,0,8.022-1.168.581.581,0,0,1,.38,1.1c-.271.094-.554.182-.845.266h0a26.522,26.522,0,0,1-5.693.943l-.054-.051c5.687,2.917,13.934,2.907,23.389-.725A65.732,65.732,0,0,0,102.9,37q-.155.07-.3.144" transform="translate(-31.873 -20.557)" fill="#37b1d9" fill-rule="evenodd"/>
      <path id="Path_4" data-name="Path 4" d="M35.645,88.186a19.327,19.327,0,0,0,1.914,6.2l.55,1.006a18.638,18.638,0,0,0,1.14,1.71q2.982.192,5.5.135a26.954,26.954,0,0,0,8.022-1.168.581.581,0,0,1,.38,1.1c-.271.094-.554.182-.845.266h0a26.532,26.532,0,0,1-5.683.924c-.076,0-.209.006-.286.01-.873.049-1.807.079-2.771.079-1.054,0-2.133-.02-3.293-.079,4.029,4.528,10.367,7.254,18.264,7.254,14.307,0,26.754-5.43,33.978-17.429H35.645" transform="translate(-23.884 -60.441)" fill="#1b81a5" fill-rule="evenodd"/>
      <path id="Path_5" data-name="Path 5" d="M45.367,88.186a14.52,14.52,0,0,0,5.894,9.047,26.954,26.954,0,0,0,8.022-1.168.581.581,0,0,1,.38,1.1c-.271.094-.554.182-.845.266h0a26.929,26.929,0,0,1-5.723.924c5.687,2.917,13.91,2.875,23.364-.757a61.75,61.75,0,0,0,16.162-9.409H45.367" transform="translate(-31.364 -60.441)" fill="#1d91b4" fill-rule="evenodd"/>
      <path id="Path_6" data-name="Path 6" d="M55.26,34.222H61.8v6.539H55.26Zm.545.545h.516v5.449H55.8Zm.97,0h.537v5.449h-.537V34.767Zm.991,0H58.3v5.449h-.537Zm.991,0h.536v5.449h-.536Zm.991,0h.536v5.449h-.536Zm.991,0h.516v5.449h-.516Zm2.067-8.09h6.539v6.539H62.8V26.677Zm.545.545h.516v5.449H63.35Zm.97,0h.537v5.449H64.32V27.222Zm.991,0h.537v5.449H65.31Zm.991,0h.537v5.449H66.3Zm.991,0h.537v5.449h-.537Zm.991,0H68.8v5.449h-.517Z" transform="translate(-37.647 -18.228)" fill="#23a3c2" fill-rule="evenodd"/>
      <path id="Path_7" data-name="Path 7" d="M78.125,49.543h6.539v6.539h-6.54V49.543Zm.545.545h.516v5.449H78.67Zm.97,0h.537v5.449h-.536V50.088Zm.991,0h.536v5.449h-.536Zm.991,0h.537v5.449h-.537Zm.991,0h.537v5.449h-.537Zm.991,0h.517v5.449H83.6Z" transform="translate(-53.138 -33.732)" fill="#34bbde" fill-rule="evenodd"/>
      <path id="Path_8" data-name="Path 8" d="M100.993,49.543h6.539v6.539h-6.539Zm.545.545h.516v5.449h-.516Zm.97,0h.537v5.449h-.537Zm.991,0h.536v5.449H103.5Zm.991,0h.536v5.449h-.536Zm.991,0h.537v5.449h-.537Zm.991,0h.516v5.449h-.516Z" transform="translate(-68.693 -33.732)" fill="#23a3c2" fill-rule="evenodd"/>
      <path id="Path_9" data-name="Path 9" d="M100.993,26.677h6.539v6.539h-6.539Zm.545.545h.516v5.449h-.516Zm.97,0h.537v5.449h-.537Zm.991,0h.536v5.449H103.5Zm.991,0h.536v5.449h-.536Zm.991,0h.537v5.449h-.537Zm.991,0h.516v5.449h-.516Zm2.067,7h6.539v6.539h-6.539Zm.545.545h.516v5.449h-.516Zm.97,0h.536v5.449h-.536Zm.99,0h.537v5.449h-.537Zm.991,0h.537v5.449h-.537Zm.991,0h.537v5.449h-.537Zm.991,0h.516v5.449h-.516Z" transform="translate(-68.803 -18.228)" fill="#34bbde" fill-rule="evenodd"/>
      <path id="Path_10" data-name="Path 10" d="M123.859,26.677H130.4v6.539h-6.539Zm.545.545h.516v5.449H124.4Zm.97,0h.537v5.449h-.537Zm.991,0h.537v5.449h-.537Zm.991,0h.537v5.449h-.537Zm.991,0h.537v5.449h-.537Zm.991,0h.516v5.449h-.516Z" transform="translate(-84.245 -18.163)" fill="#23a3c2" fill-rule="evenodd"/>
      <path id="Path_11" data-name="Path 11" d="M123.859,3.81H130.4v6.54h-6.539Zm.545.545h.516V9.8H124.4V4.354Zm.97,0h.537V9.8h-.537V4.354Zm.991,0h.537V9.8h-.537V4.354Zm.991,0h.537V9.8h-.537V4.354Zm.991,0h.537V9.8h-.537V4.354Zm.991,0h.516V9.8h-.516V4.354Z" transform="translate(-84.245 -2.553)" fill="#34bbde" fill-rule="evenodd"/>
      <path id="Path_12" data-name="Path 12" d="M146.725,49.543h6.539v6.539h-6.539Zm.544.545h.516v5.449h-.516V50.088Zm.97,0h.537v5.449h-.536V50.088Zm.991,0h.537v5.449h-.537Zm.991,0h.537v5.449h-.537Zm.991,0h.536v5.449h-.536Zm.99,0h.516v5.449H152.2Z" transform="translate(-99.798 -33.732)" fill="#23a3c2" fill-rule="evenodd"/>
      <path id="Path_13" data-name="Path 13" d="M93.04,101.492a1.8,1.8,0,1,1-1.8,1.8,1.8,1.8,0,0,1,1.8-1.8" transform="translate(-62.022 -69.029)" fill="#d3ecec" fill-rule="evenodd"/>
      <path id="Path_14" data-name="Path 14" d="M31,87.336a1.219,1.219,0,0,1,.454.087.534.534,0,0,0-.238.592.515.515,0,0,0,.493.391.51.51,0,0,0,.449-.274,1.317,1.317,0,0,1-.362,1.493,1.227,1.227,0,0,1-1.494.076,1.311,1.311,0,0,1-.5-1.449,1.26,1.26,0,0,1,1.2-.917M0,83.086H81.534c-1.775-.463-5.617-1.09-4.983-3.484-3.228,3.845-11.013,2.7-12.978.8-2.188,3.266-14.925,2.024-15.813-.52-2.743,3.313-11.242,3.313-13.985,0-.889,2.544-13.626,3.786-15.814.52C16,82.3,8.212,83.447,4.984,79.6,5.617,82,1.776,82.623,0,83.087" transform="translate(0 -54.285)" fill="#364548" fill-rule="evenodd"/>
      <path id="Path_15" data-name="Path 15" d="M69.561,124.344a15.89,15.89,0,0,1-8.284-8.148,27.673,27.673,0,0,1-5.972.906q-1.31.073-2.755.074-1.667,0-3.512-.1c4.1,4.095,9.137,7.247,18.47,7.3q1.033,0,2.053-.039" transform="translate(-33.463 -79.209)" fill="#bdd9d7" fill-rule="evenodd"/>
      <path id="Path_16" data-name="Path 16" d="M75.663,119.1a15.658,15.658,0,0,1-1.658-2.9,27.656,27.656,0,0,1-5.973.907,19.017,19.017,0,0,0,7.632,2" transform="translate(-46.283 -79.208)" fill="#d3ecec" fill-rule="evenodd"/>
    </g>
    <text id="sleep_5_" data-name="sleep(5)" transform="translate(246 145)" fill="#414141" font-size="9" font-family="HelveticaNeue, Helvetica Neue" letter-spacing="0.08em"><tspan x="-21.186" y="0">SLEEP(5)</tspan></text>
    <line id="Line_2" data-name="Line 2" y2="150" transform="translate(152 33)" fill="none" stroke="#364548" stroke-width="1"/>
    <line id="Line_4" data-name="Line 4" x1="189.447" transform="translate(152.092 115.571)" fill="none" stroke="#364548" stroke-width="1"/>
    <text id="Sleep_5_2" data-name="Sleep(5)" transform="translate(246 64)" fill="#414141" font-size="9" font-family="HelveticaNeue, Helvetica Neue" letter-spacing="0.08em"><tspan x="-21.186" y="0">SLEEP(5)</tspan></text>
    <path id="Polygon_2" data-name="Polygon 2" d="M2.719,0,5.439,5.439H0Z" transform="translate(343.352 154.548) rotate(180)" fill="#364548"/>
    <path id="Polygon_3" data-name="Polygon 3" d="M2.719,0,5.439,5.439H0Z" transform="translate(343.352 80.22) rotate(180)" fill="#364548"/>
    <line id="Line_8" data-name="Line 8" y2="150" transform="translate(341 33)" fill="none" stroke="#364548" stroke-width="1"/>
    <g id="docker-2" data-name="docker" transform="translate(205.039 5.441)">
      <path id="Path_1-2" data-name="Path 1" d="M68.367,14.662h7.3v7.494H79.36a15.951,15.951,0,0,0,5.073-.854A12.965,12.965,0,0,0,86.9,20.184a9.212,9.212,0,0,1-1.711-4.739c-.211-2.288.249-5.265,1.791-7.055l.768-.891.915.738a11.68,11.68,0,0,1,4.58,7.412,11.119,11.119,0,0,1,8.472.791l1,.581-.528,1.034c-2.067,4.05-6.388,5.3-10.613,5.083C85.254,38.947,71.491,46.431,54.8,46.431c-8.621,0-16.531-3.236-21.035-10.916L33.7,35.39,33.04,34.05a21.341,21.341,0,0,1-1.685-10.785l.1-1.108H37.7V14.662H45V7.331h14.6V0h8.762V14.662" transform="translate(-20.94)" fill="#364548" fill-rule="evenodd"/>
      <path id="Path_2-2" data-name="Path 2" d="M94.535,37.147c.489-3.932-2.355-7.02-4.118-8.486-2.032,2.431-2.348,8.8.84,11.485-1.779,1.635-5.528,3.117-9.367,3.117H35.161A20.991,20.991,0,0,0,37.1,54.5L37.63,55.5a18.716,18.716,0,0,0,1.1,1.71q2.882.192,5.313.135h0A25.242,25.242,0,0,0,51.8,56.18a.558.558,0,0,1,.7.364.587.587,0,0,1-.33.733c-.262.094-.535.182-.817.266h0a23.631,23.631,0,0,1-5.359.9c.128,0-.133.02-.133.02-.073,0-.165.016-.238.02-.844.049-1.756.059-2.687.059-1.019,0-2.023-.02-3.145-.079l-.029.02c3.893,4.528,9.981,7.244,17.613,7.244,16.15,0,29.849-7.408,35.915-24.039,4.3.457,8.44-.679,10.321-4.479a9.848,9.848,0,0,0-9.07-.065" transform="translate(-23.494 -20.557)" fill="#22a0c8" fill-rule="evenodd"/>
      <path id="Path_3-2" data-name="Path 3" d="M102.6,37.147c.506-3.932-2.436-7.02-4.261-8.486-2.1,2.431-2.429,8.8.869,11.485-1.841,1.635-5.72,3.117-9.693,3.117H44.025c-.2,6.35,2.159,11.171,6.329,14.085h0a26.954,26.954,0,0,0,8.022-1.168.581.581,0,0,1,.38,1.1c-.271.094-.554.182-.845.266h0a26.522,26.522,0,0,1-5.693.943l-.054-.051c5.687,2.917,13.934,2.907,23.389-.725A65.732,65.732,0,0,0,102.9,37q-.155.07-.3.144" transform="translate(-31.873 -20.557)" fill="#37b1d9" fill-rule="evenodd"/>
      <path id="Path_4-2" data-name="Path 4" d="M35.645,88.186a19.327,19.327,0,0,0,1.914,6.2l.55,1.006a18.638,18.638,0,0,0,1.14,1.71q2.982.192,5.5.135a26.954,26.954,0,0,0,8.022-1.168.581.581,0,0,1,.38,1.1c-.271.094-.554.182-.845.266h0a26.532,26.532,0,0,1-5.683.924c-.076,0-.209.006-.286.01-.873.049-1.807.079-2.771.079-1.054,0-2.133-.02-3.293-.079,4.029,4.528,10.367,7.254,18.264,7.254,14.307,0,26.754-5.43,33.978-17.429H35.645" transform="translate(-23.884 -60.441)" fill="#1b81a5" fill-rule="evenodd"/>
      <path id="Path_5-2" data-name="Path 5" d="M45.367,88.186a14.52,14.52,0,0,0,5.894,9.047,26.954,26.954,0,0,0,8.022-1.168.581.581,0,0,1,.38,1.1c-.271.094-.554.182-.845.266h0a26.929,26.929,0,0,1-5.723.924c5.687,2.917,13.91,2.875,23.364-.757a61.75,61.75,0,0,0,16.162-9.409H45.367" transform="translate(-31.364 -60.441)" fill="#1d91b4" fill-rule="evenodd"/>
      <path id="Path_6-2" data-name="Path 6" d="M55.26,34.222H61.8v6.539H55.26Zm.545.545h.516v5.449H55.8Zm.97,0h.537v5.449h-.537V34.767Zm.991,0H58.3v5.449h-.537Zm.991,0h.536v5.449h-.536Zm.991,0h.536v5.449h-.536Zm.991,0h.516v5.449h-.516Zm2.067-8.09h6.539v6.539H62.8V26.677Zm.545.545h.516v5.449H63.35Zm.97,0h.537v5.449H64.32V27.222Zm.991,0h.537v5.449H65.31Zm.991,0h.537v5.449H66.3Zm.991,0h.537v5.449h-.537Zm.991,0H68.8v5.449h-.517Z" transform="translate(-37.647 -18.228)" fill="#23a3c2" fill-rule="evenodd"/>
      <path id="Path_7-2" data-name="Path 7" d="M78.125,49.543h6.539v6.539h-6.54V49.543Zm.545.545h.516v5.449H78.67Zm.97,0h.537v5.449h-.536V50.088Zm.991,0h.536v5.449h-.536Zm.991,0h.537v5.449h-.537Zm.991,0h.537v5.449h-.537Zm.991,0h.517v5.449H83.6Z" transform="translate(-53.138 -33.732)" fill="#34bbde" fill-rule="evenodd"/>
      <path id="Path_8-2" data-name="Path 8" d="M100.993,49.543h6.539v6.539h-6.539Zm.545.545h.516v5.449h-.516Zm.97,0h.537v5.449h-.537Zm.991,0h.536v5.449H103.5Zm.991,0h.536v5.449h-.536Zm.991,0h.537v5.449h-.537Zm.991,0h.516v5.449h-.516Z" transform="translate(-68.693 -33.732)" fill="#23a3c2" fill-rule="evenodd"/>
      <path id="Path_9-2" data-name="Path 9" d="M100.993,26.677h6.539v6.539h-6.539Zm.545.545h.516v5.449h-.516Zm.97,0h.537v5.449h-.537Zm.991,0h.536v5.449H103.5Zm.991,0h.536v5.449h-.536Zm.991,0h.537v5.449h-.537Zm.991,0h.516v5.449h-.516Zm2.067,7h6.539v6.539h-6.539Zm.545.545h.516v5.449h-.516Zm.97,0h.536v5.449h-.536Zm.99,0h.537v5.449h-.537Zm.991,0h.537v5.449h-.537Zm.991,0h.537v5.449h-.537Zm.991,0h.516v5.449h-.516Z" transform="translate(-68.803 -18.228)" fill="#34bbde" fill-rule="evenodd"/>
      <path id="Path_10-2" data-name="Path 10" d="M123.859,26.677H130.4v6.539h-6.539Zm.545.545h.516v5.449H124.4Zm.97,0h.537v5.449h-.537Zm.991,0h.537v5.449h-.537Zm.991,0h.537v5.449h-.537Zm.991,0h.537v5.449h-.537Zm.991,0h.516v5.449h-.516Z" transform="translate(-84.245 -18.163)" fill="#23a3c2" fill-rule="evenodd"/>
      <path id="Path_11-2" data-name="Path 11" d="M123.859,3.81H130.4v6.54h-6.539Zm.545.545h.516V9.8H124.4V4.354Zm.97,0h.537V9.8h-.537V4.354Zm.991,0h.537V9.8h-.537V4.354Zm.991,0h.537V9.8h-.537V4.354Zm.991,0h.537V9.8h-.537V4.354Zm.991,0h.516V9.8h-.516V4.354Z" transform="translate(-84.245 -2.553)" fill="#34bbde" fill-rule="evenodd"/>
      <path id="Path_12-2" data-name="Path 12" d="M146.725,49.543h6.539v6.539h-6.539Zm.544.545h.516v5.449h-.516V50.088Zm.97,0h.537v5.449h-.536V50.088Zm.991,0h.537v5.449h-.537Zm.991,0h.537v5.449h-.537Zm.991,0h.536v5.449h-.536Zm.99,0h.516v5.449H152.2Z" transform="translate(-99.798 -33.732)" fill="#23a3c2" fill-rule="evenodd"/>
      <path id="Path_13-2" data-name="Path 13" d="M93.04,101.492a1.8,1.8,0,1,1-1.8,1.8,1.8,1.8,0,0,1,1.8-1.8" transform="translate(-62.022 -69.029)" fill="#d3ecec" fill-rule="evenodd"/>
      <path id="Path_14-2" data-name="Path 14" d="M31,87.336a1.219,1.219,0,0,1,.454.087.534.534,0,0,0-.238.592.515.515,0,0,0,.493.391.51.51,0,0,0,.449-.274,1.317,1.317,0,0,1-.362,1.493,1.227,1.227,0,0,1-1.494.076,1.311,1.311,0,0,1-.5-1.449,1.26,1.26,0,0,1,1.2-.917M0,83.086H81.534c-1.775-.463-5.617-1.09-4.983-3.484-3.228,3.845-11.013,2.7-12.978.8-2.188,3.266-14.925,2.024-15.813-.52-2.743,3.313-11.242,3.313-13.985,0-.889,2.544-13.626,3.786-15.814.52C16,82.3,8.212,83.447,4.984,79.6,5.617,82,1.776,82.623,0,83.087" transform="translate(0 -54.285)" fill="#364548" fill-rule="evenodd"/>
      <path id="Path_15-2" data-name="Path 15" d="M69.561,124.344a15.89,15.89,0,0,1-8.284-8.148,27.673,27.673,0,0,1-5.972.906q-1.31.073-2.755.074-1.667,0-3.512-.1c4.1,4.095,9.137,7.247,18.47,7.3q1.033,0,2.053-.039" transform="translate(-33.463 -79.209)" fill="#bdd9d7" fill-rule="evenodd"/>
      <path id="Path_16-2" data-name="Path 16" d="M75.663,119.1a15.658,15.658,0,0,1-1.658-2.9,27.656,27.656,0,0,1-5.973.907,19.017,19.017,0,0,0,7.632,2" transform="translate(-46.283 -79.208)" fill="#d3ecec" fill-rule="evenodd"/>
    </g>
    <g id="docker-3" data-name="docker" transform="translate(205.039 87.202)">
      <path id="Path_1-3" data-name="Path 1" d="M68.367,14.662h7.3v7.494H79.36a15.951,15.951,0,0,0,5.073-.854A12.965,12.965,0,0,0,86.9,20.184a9.212,9.212,0,0,1-1.711-4.739c-.211-2.288.249-5.265,1.791-7.055l.768-.891.915.738a11.68,11.68,0,0,1,4.58,7.412,11.119,11.119,0,0,1,8.472.791l1,.581-.528,1.034c-2.067,4.05-6.388,5.3-10.613,5.083C85.254,38.947,71.491,46.431,54.8,46.431c-8.621,0-16.531-3.236-21.035-10.916L33.7,35.39,33.04,34.05a21.341,21.341,0,0,1-1.685-10.785l.1-1.108H37.7V14.662H45V7.331h14.6V0h8.762V14.662" transform="translate(-20.94)" fill="#364548" fill-rule="evenodd"/>
      <path id="Path_2-3" data-name="Path 2" d="M94.535,37.147c.489-3.932-2.355-7.02-4.118-8.486-2.032,2.431-2.348,8.8.84,11.485-1.779,1.635-5.528,3.117-9.367,3.117H35.161A20.991,20.991,0,0,0,37.1,54.5L37.63,55.5a18.716,18.716,0,0,0,1.1,1.71q2.882.192,5.313.135h0A25.242,25.242,0,0,0,51.8,56.18a.558.558,0,0,1,.7.364.587.587,0,0,1-.33.733c-.262.094-.535.182-.817.266h0a23.631,23.631,0,0,1-5.359.9c.128,0-.133.02-.133.02-.073,0-.165.016-.238.02-.844.049-1.756.059-2.687.059-1.019,0-2.023-.02-3.145-.079l-.029.02c3.893,4.528,9.981,7.244,17.613,7.244,16.15,0,29.849-7.408,35.915-24.039,4.3.457,8.44-.679,10.321-4.479a9.848,9.848,0,0,0-9.07-.065" transform="translate(-23.494 -20.557)" fill="#22a0c8" fill-rule="evenodd"/>
      <path id="Path_3-3" data-name="Path 3" d="M102.6,37.147c.506-3.932-2.436-7.02-4.261-8.486-2.1,2.431-2.429,8.8.869,11.485-1.841,1.635-5.72,3.117-9.693,3.117H44.025c-.2,6.35,2.159,11.171,6.329,14.085h0a26.954,26.954,0,0,0,8.022-1.168.581.581,0,0,1,.38,1.1c-.271.094-.554.182-.845.266h0a26.522,26.522,0,0,1-5.693.943l-.054-.051c5.687,2.917,13.934,2.907,23.389-.725A65.732,65.732,0,0,0,102.9,37q-.155.07-.3.144" transform="translate(-31.873 -20.557)" fill="#37b1d9" fill-rule="evenodd"/>
      <path id="Path_4-3" data-name="Path 4" d="M35.645,88.186a19.327,19.327,0,0,0,1.914,6.2l.55,1.006a18.638,18.638,0,0,0,1.14,1.71q2.982.192,5.5.135a26.954,26.954,0,0,0,8.022-1.168.581.581,0,0,1,.38,1.1c-.271.094-.554.182-.845.266h0a26.532,26.532,0,0,1-5.683.924c-.076,0-.209.006-.286.01-.873.049-1.807.079-2.771.079-1.054,0-2.133-.02-3.293-.079,4.029,4.528,10.367,7.254,18.264,7.254,14.307,0,26.754-5.43,33.978-17.429H35.645" transform="translate(-23.884 -60.441)" fill="#1b81a5" fill-rule="evenodd"/>
      <path id="Path_5-3" data-name="Path 5" d="M45.367,88.186a14.52,14.52,0,0,0,5.894,9.047,26.954,26.954,0,0,0,8.022-1.168.581.581,0,0,1,.38,1.1c-.271.094-.554.182-.845.266h0a26.929,26.929,0,0,1-5.723.924c5.687,2.917,13.91,2.875,23.364-.757a61.75,61.75,0,0,0,16.162-9.409H45.367" transform="translate(-31.364 -60.441)" fill="#1d91b4" fill-rule="evenodd"/>
      <path id="Path_6-3" data-name="Path 6" d="M55.26,34.222H61.8v6.539H55.26Zm.545.545h.516v5.449H55.8Zm.97,0h.537v5.449h-.537V34.767Zm.991,0H58.3v5.449h-.537Zm.991,0h.536v5.449h-.536Zm.991,0h.536v5.449h-.536Zm.991,0h.516v5.449h-.516Zm2.067-8.09h6.539v6.539H62.8V26.677Zm.545.545h.516v5.449H63.35Zm.97,0h.537v5.449H64.32V27.222Zm.991,0h.537v5.449H65.31Zm.991,0h.537v5.449H66.3Zm.991,0h.537v5.449h-.537Zm.991,0H68.8v5.449h-.517Z" transform="translate(-37.647 -18.228)" fill="#23a3c2" fill-rule="evenodd"/>
      <path id="Path_7-3" data-name="Path 7" d="M78.125,49.543h6.539v6.539h-6.54V49.543Zm.545.545h.516v5.449H78.67Zm.97,0h.537v5.449h-.536V50.088Zm.991,0h.536v5.449h-.536Zm.991,0h.537v5.449h-.537Zm.991,0h.537v5.449h-.537Zm.991,0h.517v5.449H83.6Z" transform="translate(-53.138 -33.732)" fill="#34bbde" fill-rule="evenodd"/>
      <path id="Path_8-3" data-name="Path 8" d="M100.993,49.543h6.539v6.539h-6.539Zm.545.545h.516v5.449h-.516Zm.97,0h.537v5.449h-.537Zm.991,0h.536v5.449H103.5Zm.991,0h.536v5.449h-.536Zm.991,0h.537v5.449h-.537Zm.991,0h.516v5.449h-.516Z" transform="translate(-68.693 -33.732)" fill="#23a3c2" fill-rule="evenodd"/>
      <path id="Path_9-3" data-name="Path 9" d="M100.993,26.677h6.539v6.539h-6.539Zm.545.545h.516v5.449h-.516Zm.97,0h.537v5.449h-.537Zm.991,0h.536v5.449H103.5Zm.991,0h.536v5.449h-.536Zm.991,0h.537v5.449h-.537Zm.991,0h.516v5.449h-.516Zm2.067,7h6.539v6.539h-6.539Zm.545.545h.516v5.449h-.516Zm.97,0h.536v5.449h-.536Zm.99,0h.537v5.449h-.537Zm.991,0h.537v5.449h-.537Zm.991,0h.537v5.449h-.537Zm.991,0h.516v5.449h-.516Z" transform="translate(-68.803 -18.228)" fill="#34bbde" fill-rule="evenodd"/>
      <path id="Path_10-3" data-name="Path 10" d="M123.859,26.677H130.4v6.539h-6.539Zm.545.545h.516v5.449H124.4Zm.97,0h.537v5.449h-.537Zm.991,0h.537v5.449h-.537Zm.991,0h.537v5.449h-.537Zm.991,0h.537v5.449h-.537Zm.991,0h.516v5.449h-.516Z" transform="translate(-84.245 -18.163)" fill="#23a3c2" fill-rule="evenodd"/>
      <path id="Path_11-3" data-name="Path 11" d="M123.859,3.81H130.4v6.54h-6.539Zm.545.545h.516V9.8H124.4V4.354Zm.97,0h.537V9.8h-.537V4.354Zm.991,0h.537V9.8h-.537V4.354Zm.991,0h.537V9.8h-.537V4.354Zm.991,0h.537V9.8h-.537V4.354Zm.991,0h.516V9.8h-.516V4.354Z" transform="translate(-84.245 -2.553)" fill="#34bbde" fill-rule="evenodd"/>
      <path id="Path_12-3" data-name="Path 12" d="M146.725,49.543h6.539v6.539h-6.539Zm.544.545h.516v5.449h-.516V50.088Zm.97,0h.537v5.449h-.536V50.088Zm.991,0h.537v5.449h-.537Zm.991,0h.537v5.449h-.537Zm.991,0h.536v5.449h-.536Zm.99,0h.516v5.449H152.2Z" transform="translate(-99.798 -33.732)" fill="#23a3c2" fill-rule="evenodd"/>
      <path id="Path_13-3" data-name="Path 13" d="M93.04,101.492a1.8,1.8,0,1,1-1.8,1.8,1.8,1.8,0,0,1,1.8-1.8" transform="translate(-62.022 -69.029)" fill="#d3ecec" fill-rule="evenodd"/>
      <path id="Path_14-3" data-name="Path 14" d="M31,87.336a1.219,1.219,0,0,1,.454.087.534.534,0,0,0-.238.592.515.515,0,0,0,.493.391.51.51,0,0,0,.449-.274,1.317,1.317,0,0,1-.362,1.493,1.227,1.227,0,0,1-1.494.076,1.311,1.311,0,0,1-.5-1.449,1.26,1.26,0,0,1,1.2-.917M0,83.086H81.534c-1.775-.463-5.617-1.09-4.983-3.484-3.228,3.845-11.013,2.7-12.978.8-2.188,3.266-14.925,2.024-15.813-.52-2.743,3.313-11.242,3.313-13.985,0-.889,2.544-13.626,3.786-15.814.52C16,82.3,8.212,83.447,4.984,79.6,5.617,82,1.776,82.623,0,83.087" transform="translate(0 -54.285)" fill="#364548" fill-rule="evenodd"/>
      <path id="Path_15-3" data-name="Path 15" d="M69.561,124.344a15.89,15.89,0,0,1-8.284-8.148,27.673,27.673,0,0,1-5.972.906q-1.31.073-2.755.074-1.667,0-3.512-.1c4.1,4.095,9.137,7.247,18.47,7.3q1.033,0,2.053-.039" transform="translate(-33.463 -79.209)" fill="#bdd9d7" fill-rule="evenodd"/>
      <path id="Path_16-3" data-name="Path 16" d="M75.663,119.1a15.658,15.658,0,0,1-1.658-2.9,27.656,27.656,0,0,1-5.973.907,19.017,19.017,0,0,0,7.632,2" transform="translate(-46.283 -79.208)" fill="#d3ecec" fill-rule="evenodd"/>
    </g>
    <path id="Polygon_5" data-name="Polygon 5" d="M3,0,6,4H0Z" transform="translate(128 182) rotate(90)" fill="#364548"/>
    <path id="Polygon_6" data-name="Polygon 6" d="M2.719,0,5.439,5.439H0Z" transform="translate(149.373 145.484)" fill="#364548"/>
    <path id="Polygon_7" data-name="Polygon 7" d="M2.719,0,5.439,5.439H0Z" transform="translate(149.373 71.155)" fill="#364548"/>
    <line id="Line_7" data-name="Line 7" x1="189.447" transform="translate(152.092 33.991)" fill="none" stroke="#364548" stroke-width="1"/>
    <path id="Polygon_4" data-name="Polygon 4" d="M3,0,6,6H0Z" transform="translate(412 182) rotate(90)" fill="#364548"/>
    <text id="Parallel" transform="translate(40 216)" fill="#414141" font-size="9" font-family="HelveticaNeue, Helvetica Neue" letter-spacing="0.08em"><tspan x="-24.273" y="0">PARALLEL</tspan></text>
  </g>
</svg>
